<mxfile host="app.diagrams.net" modified="2023-03-29T03:18:58.688Z" agent="Mozilla/5.0 (Windows NT 10.0; Win64; x64) AppleWebKit/537.36 (KHTML, like Gecko) Chrome/111.0.0.0 Safari/537.36" etag="ymxFf3iXT4Oz_72v5PB5" version="21.1.1" type="github">
  <diagram id="prtHgNgQTEPvFCAcTncT" name="Page-1">
    <mxGraphModel dx="1981" dy="699" grid="1" gridSize="10" guides="1" tooltips="1" connect="1" arrows="1" fold="1" page="1" pageScale="1" pageWidth="827" pageHeight="1169" math="0" shadow="0">
      <root>
        <mxCell id="0" />
        <mxCell id="1" parent="0" />
        <mxCell id="QDGvHehOKybcKLlj2q08-73" value="&lt;font style=&quot;font-size: 16px;&quot;&gt;1、&lt;font color=&quot;#009900&quot;&gt;&lt;b&gt;岗位分配功能完成情况（修复bug等，bug少，严重bug少，80+）&lt;/b&gt;&lt;/font&gt; + &lt;b style=&quot;&quot;&gt;&lt;font color=&quot;#ff0000&quot;&gt;突出表现（&lt;/font&gt;&lt;font color=&quot;#ff9999&quot;&gt;每月PBC打分备注上&lt;/font&gt;&lt;font color=&quot;#ff0000&quot;&gt;）&lt;/font&gt;&lt;br&gt;&lt;font color=&quot;#ff0000&quot;&gt;突出表现：&lt;/font&gt;&lt;/b&gt;&lt;br&gt;&lt;font color=&quot;#ff0000&quot;&gt;（1）、工作负责、积极解决线上紧急问题；&lt;/font&gt;&lt;br&gt;&lt;span style=&quot;color: rgb(255, 0, 0);&quot;&gt;	&lt;/span&gt;&lt;font color=&quot;#ff0000&quot;&gt;（2）、完成本月额外指定的任务（可能目前不需要考虑，后期需要考虑的问题）&lt;/font&gt;&lt;br&gt;&lt;span style=&quot;color: rgb(255, 0, 0);&quot;&gt;	&lt;/span&gt;&lt;font color=&quot;#ff0000&quot;&gt;（3）、完成难处理的bug（有产出，有排查过程，技术总结，可以开会分享）&lt;br&gt;&lt;/font&gt;&lt;span style=&quot;&quot;&gt;	&lt;font color=&quot;#ff0000&quot;&gt;（&lt;/font&gt;&lt;/span&gt;&lt;font color=&quot;#ff0000&quot;&gt;4&lt;span style=&quot;&quot;&gt;）、性能优化（有产出，有数据支持，有文档输出，可以开技术讨论会分享）&lt;br&gt;&lt;/span&gt;&lt;/font&gt;&lt;font style=&quot;border-color: var(--border-color);&quot; color=&quot;#ff0000&quot;&gt;（5&lt;/font&gt;&lt;font style=&quot;border-color: var(--border-color);&quot; color=&quot;#ff0000&quot;&gt;&lt;span style=&quot;border-color: var(--border-color);&quot;&gt;）、技术分享会，比如分享go 1.20新特性，推荐好用的库等&lt;br&gt;&lt;/span&gt;&lt;/font&gt;&lt;font style=&quot;border-color: var(--border-color);&quot; color=&quot;#ff0000&quot;&gt;（6&lt;/font&gt;&lt;font style=&quot;border-color: var(--border-color);&quot; color=&quot;#ff0000&quot;&gt;）、4月份开始，会编写微服务，各自负责自己的服务，代码单元测试，覆盖率，bug少，接口文档，也可以作为判断依据&lt;/font&gt;&lt;br&gt;&lt;font style=&quot;border-color: var(--border-color);&quot; color=&quot;#ff0000&quot;&gt;（7&lt;/font&gt;&lt;font style=&quot;border-color: var(--border-color);&quot; color=&quot;#ff0000&quot;&gt;）、接口规范性&lt;/font&gt;&lt;br&gt;&lt;font color=&quot;#ff0000&quot;&gt;&amp;nbsp;&lt;/font&gt;&lt;/font&gt;" style="rounded=1;whiteSpace=wrap;html=1;align=left;" vertex="1" parent="1">
          <mxGeometry x="-435" y="2680" width="715" height="400" as="geometry" />
        </mxCell>
        <mxCell id="QDGvHehOKybcKLlj2q08-12" value="&#xa;&lt;b style=&quot;border-color: var(--border-color); color: rgb(255, 255, 255); font-family: &amp;quot;Comic Sans MS&amp;quot;; font-size: 16px; font-style: normal; font-variant-ligatures: normal; font-variant-caps: normal; letter-spacing: normal; orphans: 2; text-align: center; text-indent: 0px; text-transform: none; widows: 2; word-spacing: 0px; -webkit-text-stroke-width: 0px; background-color: rgb(251, 251, 251); text-decoration-thickness: initial; text-decoration-style: initial; text-decoration-color: initial;&quot;&gt;CBB Agent&lt;/b&gt;&#xa;&#xa;" style="rounded=0;whiteSpace=wrap;html=1;" vertex="1" parent="1">
          <mxGeometry x="-510" y="1400" width="990" height="480" as="geometry" />
        </mxCell>
        <mxCell id="dNxyNK7c78bLwvsdeMH5-11" value="&lt;span style=&quot;font-size: 16px;&quot;&gt;&amp;nbsp; &amp;nbsp; &amp;nbsp;&lt;span style=&quot;white-space: pre;&quot;&gt;	&lt;/span&gt;&lt;span style=&quot;white-space: pre;&quot;&gt;	&lt;/span&gt;&lt;span style=&quot;white-space: pre;&quot;&gt;	&lt;/span&gt;&lt;span style=&quot;white-space: pre;&quot;&gt;	&lt;/span&gt;&lt;span style=&quot;white-space: pre;&quot;&gt;	&lt;/span&gt;&lt;span style=&quot;white-space: pre;&quot;&gt;	&lt;/span&gt;&lt;span style=&quot;white-space: pre;&quot;&gt;	&lt;/span&gt;&lt;span style=&quot;white-space: pre;&quot;&gt;	&lt;/span&gt;&lt;span style=&quot;white-space: pre;&quot;&gt;	&lt;/span&gt;&lt;span style=&quot;white-space: pre;&quot;&gt;	&lt;/span&gt;&lt;span style=&quot;white-space: pre;&quot;&gt;	&lt;/span&gt;&lt;span style=&quot;white-space: pre;&quot;&gt;	&lt;/span&gt;&lt;span style=&quot;white-space: pre;&quot;&gt;	&lt;/span&gt;&lt;span style=&quot;white-space: pre;&quot;&gt;	&lt;/span&gt;自适应产品部--后端&lt;/span&gt;" style="swimlane;html=1;startSize=20;horizontal=1;containerType=tree;glass=0;align=left;" parent="1" vertex="1">
          <mxGeometry x="-520" y="40" width="1060" height="770" as="geometry">
            <mxRectangle x="-520" y="40" width="100" height="30" as="alternateBounds" />
          </mxGeometry>
        </mxCell>
        <mxCell id="dNxyNK7c78bLwvsdeMH5-13" value="" style="endArrow=blockThin;endFill=1;fontSize=11;edgeStyle=elbowEdgeStyle;elbow=vertical;rounded=0;exitX=0;exitY=0.5;exitDx=0;exitDy=0;" parent="dNxyNK7c78bLwvsdeMH5-11" source="dNxyNK7c78bLwvsdeMH5-12" target="dNxyNK7c78bLwvsdeMH5-14" edge="1">
          <mxGeometry relative="1" as="geometry">
            <mxPoint x="270" y="90" as="sourcePoint" />
            <Array as="points">
              <mxPoint x="270" y="85" />
            </Array>
          </mxGeometry>
        </mxCell>
        <UserObject label="吴阳&lt;br&gt;" placeholders="1" id="dNxyNK7c78bLwvsdeMH5-14">
          <mxCell style="label;image=https://cdn3.iconfinder.com/data/icons/user-avatars-1/512/users-10-3-128.png;whiteSpace=wrap;html=1;rounded=0;glass=0;treeFolding=1;treeMoving=1;" parent="dNxyNK7c78bLwvsdeMH5-11" vertex="1">
            <mxGeometry x="184" y="180" width="180" height="80" as="geometry" />
          </mxCell>
        </UserObject>
        <mxCell id="dNxyNK7c78bLwvsdeMH5-15" value="" style="endArrow=blockThin;endFill=1;fontSize=11;edgeStyle=elbowEdgeStyle;elbow=vertical;rounded=0;" parent="dNxyNK7c78bLwvsdeMH5-11" source="dNxyNK7c78bLwvsdeMH5-12" target="dNxyNK7c78bLwvsdeMH5-16" edge="1">
          <mxGeometry relative="1" as="geometry" />
        </mxCell>
        <UserObject label="韩湘" placeholders="1" id="dNxyNK7c78bLwvsdeMH5-16">
          <mxCell style="label;image=https://cdn3.iconfinder.com/data/icons/user-avatars-1/512/users-9-2-128.png;whiteSpace=wrap;html=1;rounded=0;glass=0;treeFolding=1;treeMoving=1;" parent="dNxyNK7c78bLwvsdeMH5-11" vertex="1">
            <mxGeometry x="384" y="180" width="180" height="80" as="geometry" />
          </mxCell>
        </UserObject>
        <mxCell id="P8AsUJd5_cXzrDXwwjN4-2" value="" style="endArrow=blockThin;endFill=1;fontSize=11;edgeStyle=elbowEdgeStyle;elbow=vertical;rounded=0;" parent="dNxyNK7c78bLwvsdeMH5-11" source="dNxyNK7c78bLwvsdeMH5-14" target="P8AsUJd5_cXzrDXwwjN4-3" edge="1">
          <mxGeometry relative="1" as="geometry">
            <mxPoint x="300" y="160" as="sourcePoint" />
          </mxGeometry>
        </mxCell>
        <UserObject label="CBB Agent 资产、CBB logminer、安装部署、CI/CD集成、代码规范、Nat-VNC、策略模板、LDAP" placeholders="1" id="P8AsUJd5_cXzrDXwwjN4-3">
          <mxCell style="whiteSpace=wrap;html=1;rounded=0;glass=0;treeFolding=1;treeMoving=1;align=left;verticalAlign=top;" parent="dNxyNK7c78bLwvsdeMH5-11" vertex="1" collapsed="1">
            <mxGeometry x="189" y="290" width="170" height="140" as="geometry" />
          </mxCell>
        </UserObject>
        <mxCell id="0Z5E34LWCH2BCrxLQeH4-35" style="edgeStyle=orthogonalEdgeStyle;rounded=0;orthogonalLoop=1;jettySize=auto;html=1;entryX=0;entryY=0.5;entryDx=0;entryDy=0;fontFamily=Helvetica;fontSize=12;fontColor=default;startSize=20;" parent="dNxyNK7c78bLwvsdeMH5-11" source="dNxyNK7c78bLwvsdeMH5-12" target="0Z5E34LWCH2BCrxLQeH4-30" edge="1">
          <mxGeometry relative="1" as="geometry" />
        </mxCell>
        <mxCell id="0Z5E34LWCH2BCrxLQeH4-36" style="edgeStyle=orthogonalEdgeStyle;rounded=0;orthogonalLoop=1;jettySize=auto;html=1;entryX=1;entryY=0.5;entryDx=0;entryDy=0;fontFamily=Helvetica;fontSize=12;fontColor=default;startSize=20;" parent="dNxyNK7c78bLwvsdeMH5-11" source="dNxyNK7c78bLwvsdeMH5-12" target="0Z5E34LWCH2BCrxLQeH4-33" edge="1">
          <mxGeometry relative="1" as="geometry" />
        </mxCell>
        <mxCell id="0Z5E34LWCH2BCrxLQeH4-37" style="edgeStyle=orthogonalEdgeStyle;rounded=0;orthogonalLoop=1;jettySize=auto;html=1;entryX=1;entryY=0.5;entryDx=0;entryDy=0;fontFamily=Helvetica;fontSize=12;fontColor=default;startSize=20;" parent="dNxyNK7c78bLwvsdeMH5-11" source="dNxyNK7c78bLwvsdeMH5-12" target="0Z5E34LWCH2BCrxLQeH4-29" edge="1">
          <mxGeometry relative="1" as="geometry" />
        </mxCell>
        <mxCell id="0Z5E34LWCH2BCrxLQeH4-38" style="edgeStyle=orthogonalEdgeStyle;rounded=0;orthogonalLoop=1;jettySize=auto;html=1;fontFamily=Helvetica;fontSize=12;fontColor=default;startSize=20;exitX=0.5;exitY=1;exitDx=0;exitDy=0;" parent="dNxyNK7c78bLwvsdeMH5-11" source="dNxyNK7c78bLwvsdeMH5-12" target="P8AsUJd5_cXzrDXwwjN4-17" edge="1">
          <mxGeometry relative="1" as="geometry">
            <mxPoint x="580" y="100" as="sourcePoint" />
            <Array as="points">
              <mxPoint x="580" y="140" />
              <mxPoint x="680" y="140" />
            </Array>
          </mxGeometry>
        </mxCell>
        <mxCell id="0Z5E34LWCH2BCrxLQeH4-40" style="edgeStyle=orthogonalEdgeStyle;rounded=0;orthogonalLoop=1;jettySize=auto;html=1;entryX=1;entryY=0.5;entryDx=0;entryDy=0;fontFamily=Helvetica;fontSize=12;fontColor=default;startSize=20;" parent="dNxyNK7c78bLwvsdeMH5-11" source="dNxyNK7c78bLwvsdeMH5-12" target="0Z5E34LWCH2BCrxLQeH4-32" edge="1">
          <mxGeometry relative="1" as="geometry">
            <Array as="points">
              <mxPoint x="780" y="85" />
              <mxPoint x="780" y="500" />
            </Array>
          </mxGeometry>
        </mxCell>
        <mxCell id="0Z5E34LWCH2BCrxLQeH4-41" style="edgeStyle=orthogonalEdgeStyle;rounded=0;orthogonalLoop=1;jettySize=auto;html=1;entryX=1;entryY=0.75;entryDx=0;entryDy=0;fontFamily=Helvetica;fontSize=12;fontColor=default;startSize=20;exitX=1;exitY=0.5;exitDx=0;exitDy=0;" parent="dNxyNK7c78bLwvsdeMH5-11" source="dNxyNK7c78bLwvsdeMH5-12" target="0Z5E34LWCH2BCrxLQeH4-31" edge="1">
          <mxGeometry relative="1" as="geometry">
            <Array as="points">
              <mxPoint x="580" y="85" />
              <mxPoint x="580" y="520" />
            </Array>
          </mxGeometry>
        </mxCell>
        <UserObject label="何涛江" name="何涛江" placeholders="1" id="dNxyNK7c78bLwvsdeMH5-12">
          <mxCell style="label;image=https://cdn3.iconfinder.com/data/icons/user-avatars-1/512/users-8-2-256.png;whiteSpace=wrap;html=1;rounded=0;glass=0;treeMoving=1;treeFolding=1;" parent="dNxyNK7c78bLwvsdeMH5-11" vertex="1">
            <mxGeometry x="490" y="30" width="180" height="70" as="geometry" />
          </mxCell>
        </UserObject>
        <mxCell id="P8AsUJd5_cXzrDXwwjN4-4" value="" style="endArrow=blockThin;endFill=1;fontSize=11;edgeStyle=elbowEdgeStyle;elbow=vertical;rounded=0;" parent="dNxyNK7c78bLwvsdeMH5-11" source="dNxyNK7c78bLwvsdeMH5-16" target="P8AsUJd5_cXzrDXwwjN4-5" edge="1">
          <mxGeometry relative="1" as="geometry">
            <mxPoint x="190" y="160" as="sourcePoint" />
          </mxGeometry>
        </mxCell>
        <UserObject label="终端管理、防火墙对接、高级部署、CBB Agent 任务、service_probe、终端任务" placeholders="1" id="P8AsUJd5_cXzrDXwwjN4-5">
          <mxCell style="whiteSpace=wrap;html=1;rounded=0;glass=0;treeFolding=1;treeMoving=1;align=left;verticalAlign=top;" parent="dNxyNK7c78bLwvsdeMH5-11" vertex="1">
            <mxGeometry x="384" y="290" width="180" height="140" as="geometry" />
          </mxCell>
        </UserObject>
        <UserObject label="谢崇彬" placeholders="1" id="P8AsUJd5_cXzrDXwwjN4-17">
          <mxCell style="label;image=https://cdn3.iconfinder.com/data/icons/user-avatars-1/512/users-11-2-512.png;whiteSpace=wrap;html=1;rounded=0;glass=0;treeFolding=1;treeMoving=1;" parent="dNxyNK7c78bLwvsdeMH5-11" vertex="1">
            <mxGeometry x="590" y="180" width="180" height="80" as="geometry" />
          </mxCell>
        </UserObject>
        <mxCell id="0Z5E34LWCH2BCrxLQeH4-17" value="" style="edgeStyle=orthogonalEdgeStyle;rounded=0;orthogonalLoop=1;jettySize=auto;html=1;" parent="dNxyNK7c78bLwvsdeMH5-11" source="P8AsUJd5_cXzrDXwwjN4-17" target="0Z5E34LWCH2BCrxLQeH4-18" edge="1">
          <mxGeometry relative="1" as="geometry" />
        </mxCell>
        <UserObject label="高级部署、系统日志、终端发现、&#xa;OCR、EDR提测" placeholders="1" id="0Z5E34LWCH2BCrxLQeH4-18">
          <mxCell style="align=left;fontStyle=0;verticalAlign=top;" parent="dNxyNK7c78bLwvsdeMH5-11" vertex="1" collapsed="1">
            <mxGeometry x="587" y="290" width="186" height="140" as="geometry" />
          </mxCell>
        </UserObject>
        <mxCell id="0Z5E34LWCH2BCrxLQeH4-61" style="edgeStyle=orthogonalEdgeStyle;rounded=0;orthogonalLoop=1;jettySize=auto;html=1;exitX=0.5;exitY=1;exitDx=0;exitDy=0;entryX=0.5;entryY=0;entryDx=0;entryDy=0;fontFamily=Helvetica;fontSize=12;fontColor=default;startSize=20;" parent="dNxyNK7c78bLwvsdeMH5-11" source="0Z5E34LWCH2BCrxLQeH4-29" target="0Z5E34LWCH2BCrxLQeH4-58" edge="1">
          <mxGeometry relative="1" as="geometry" />
        </mxCell>
        <UserObject label="刘鑫" placeholders="1" id="0Z5E34LWCH2BCrxLQeH4-29">
          <mxCell style="label;image=https://cdn3.iconfinder.com/data/icons/user-avatars-1/512/users-15-512.png;whiteSpace=wrap;html=1;rounded=0;glass=0;treeFolding=1;treeMoving=1;" parent="dNxyNK7c78bLwvsdeMH5-11" vertex="1">
            <mxGeometry x="790" y="180" width="180" height="80" as="geometry" />
          </mxCell>
        </UserObject>
        <mxCell id="0Z5E34LWCH2BCrxLQeH4-63" style="edgeStyle=orthogonalEdgeStyle;rounded=0;orthogonalLoop=1;jettySize=auto;html=1;entryX=0.5;entryY=0;entryDx=0;entryDy=0;fontFamily=Helvetica;fontSize=12;fontColor=default;startSize=20;" parent="dNxyNK7c78bLwvsdeMH5-11" source="0Z5E34LWCH2BCrxLQeH4-30" target="0Z5E34LWCH2BCrxLQeH4-62" edge="1">
          <mxGeometry relative="1" as="geometry" />
        </mxCell>
        <UserObject label="曹迅" placeholders="1" id="0Z5E34LWCH2BCrxLQeH4-30">
          <mxCell style="label;image=https://cdn3.iconfinder.com/data/icons/user-avatars-1/512/users-6-2-512.png;whiteSpace=wrap;html=1;rounded=0;glass=0;treeFolding=1;treeMoving=1;" parent="dNxyNK7c78bLwvsdeMH5-11" vertex="1">
            <mxGeometry x="184" y="460" width="180" height="80" as="geometry" />
          </mxCell>
        </UserObject>
        <mxCell id="0Z5E34LWCH2BCrxLQeH4-71" style="edgeStyle=orthogonalEdgeStyle;rounded=0;orthogonalLoop=1;jettySize=auto;html=1;entryX=0.5;entryY=0;entryDx=0;entryDy=0;fontFamily=Helvetica;fontSize=12;fontColor=default;startSize=20;" parent="dNxyNK7c78bLwvsdeMH5-11" source="0Z5E34LWCH2BCrxLQeH4-31" target="0Z5E34LWCH2BCrxLQeH4-64" edge="1">
          <mxGeometry relative="1" as="geometry" />
        </mxCell>
        <UserObject label="丁旭" placeholders="1" id="0Z5E34LWCH2BCrxLQeH4-31">
          <mxCell style="label;image=https://cdn3.iconfinder.com/data/icons/user-avatars-1/512/users-2-512.png;whiteSpace=wrap;html=1;rounded=0;glass=0;treeFolding=1;treeMoving=1;" parent="dNxyNK7c78bLwvsdeMH5-11" vertex="1">
            <mxGeometry x="384" y="460" width="180" height="80" as="geometry" />
          </mxCell>
        </UserObject>
        <mxCell id="0Z5E34LWCH2BCrxLQeH4-70" style="edgeStyle=orthogonalEdgeStyle;rounded=0;orthogonalLoop=1;jettySize=auto;html=1;entryX=0.5;entryY=0;entryDx=0;entryDy=0;fontFamily=Helvetica;fontSize=12;fontColor=default;startSize=20;" parent="dNxyNK7c78bLwvsdeMH5-11" source="0Z5E34LWCH2BCrxLQeH4-32" target="0Z5E34LWCH2BCrxLQeH4-65" edge="1">
          <mxGeometry relative="1" as="geometry" />
        </mxCell>
        <UserObject label="唐川成" placeholders="1" id="0Z5E34LWCH2BCrxLQeH4-32">
          <mxCell style="label;image=https://cdn3.iconfinder.com/data/icons/user-avatars-1/512/users-7-512.png;whiteSpace=wrap;html=1;rounded=0;glass=0;treeFolding=1;treeMoving=1;" parent="dNxyNK7c78bLwvsdeMH5-11" vertex="1">
            <mxGeometry x="584" y="460" width="180" height="80" as="geometry" />
          </mxCell>
        </UserObject>
        <mxCell id="0Z5E34LWCH2BCrxLQeH4-69" style="edgeStyle=orthogonalEdgeStyle;rounded=0;orthogonalLoop=1;jettySize=auto;html=1;entryX=0.5;entryY=0;entryDx=0;entryDy=0;fontFamily=Helvetica;fontSize=12;fontColor=default;startSize=20;" parent="dNxyNK7c78bLwvsdeMH5-11" source="0Z5E34LWCH2BCrxLQeH4-33" target="0Z5E34LWCH2BCrxLQeH4-66" edge="1">
          <mxGeometry relative="1" as="geometry" />
        </mxCell>
        <UserObject label="王鹏" placeholders="1" id="0Z5E34LWCH2BCrxLQeH4-33">
          <mxCell style="label;image=https://cdn3.iconfinder.com/data/icons/user-avatars-1/512/users-4-512.png;whiteSpace=wrap;html=1;rounded=0;glass=0;treeFolding=1;treeMoving=1;" parent="dNxyNK7c78bLwvsdeMH5-11" vertex="1">
            <mxGeometry x="790" y="455" width="180" height="80" as="geometry" />
          </mxCell>
        </UserObject>
        <UserObject label="策略、资产、风险发现、威胁监测&#xa;等模块" placeholders="1" id="0Z5E34LWCH2BCrxLQeH4-58">
          <mxCell style="verticalAlign=top;align=left;" parent="dNxyNK7c78bLwvsdeMH5-11" vertex="1" collapsed="1">
            <mxGeometry x="790" y="290" width="186" height="140" as="geometry" />
          </mxCell>
        </UserObject>
        <UserObject label="统计分析、报表、审计、升级、&#xa;CBB Agent" placeholders="1" id="0Z5E34LWCH2BCrxLQeH4-62">
          <mxCell style="align=left;verticalAlign=top;" parent="dNxyNK7c78bLwvsdeMH5-11" vertex="1" collapsed="1">
            <mxGeometry x="181" y="570" width="186" height="140" as="geometry" />
          </mxCell>
        </UserObject>
        <UserObject label="审计、终端日志、同步工具、&#xa;日志外发、特征库、benthos、" placeholders="1" id="0Z5E34LWCH2BCrxLQeH4-64">
          <mxCell style="align=left;verticalAlign=top;" parent="dNxyNK7c78bLwvsdeMH5-11" vertex="1" collapsed="1">
            <mxGeometry x="381" y="570" width="186" height="140" as="geometry" />
          </mxCell>
        </UserObject>
        <UserObject label="BD 系统、样本上传、&#xa;查询优化、病毒引擎扫描" placeholders="1" id="0Z5E34LWCH2BCrxLQeH4-65">
          <mxCell style="align=left;verticalAlign=top;" parent="dNxyNK7c78bLwvsdeMH5-11" vertex="1" collapsed="1">
            <mxGeometry x="581" y="570" width="186" height="140" as="geometry" />
          </mxCell>
        </UserObject>
        <UserObject label="BD系统、yara插件扫描、&#xa;样本解压缩、&#xa;安全基线" placeholders="1" id="0Z5E34LWCH2BCrxLQeH4-66">
          <mxCell style="align=left;verticalAlign=top;" parent="dNxyNK7c78bLwvsdeMH5-11" vertex="1" collapsed="1">
            <mxGeometry x="787" y="570" width="186" height="140" as="geometry" />
          </mxCell>
        </UserObject>
        <mxCell id="0Z5E34LWCH2BCrxLQeH4-9" value="自适应产品部--前端" style="swimlane;html=1;startSize=20;horizontal=1;containerType=tree;glass=0;fontSize=16;" parent="1" vertex="1">
          <mxGeometry x="-520" y="850" width="1060" height="450" as="geometry">
            <mxRectangle x="-520" y="850" width="180" height="30" as="alternateBounds" />
          </mxGeometry>
        </mxCell>
        <UserObject label="何涛江" placeholders="1" id="0Z5E34LWCH2BCrxLQeH4-10">
          <mxCell style="label;image=https://cdn3.iconfinder.com/data/icons/user-avatars-1/512/users-8-2-256.png;whiteSpace=wrap;html=1;rounded=0;glass=0;treeMoving=1;treeFolding=1;" parent="0Z5E34LWCH2BCrxLQeH4-9" vertex="1">
            <mxGeometry x="440" y="40" width="180" height="70" as="geometry" />
          </mxCell>
        </UserObject>
        <mxCell id="0Z5E34LWCH2BCrxLQeH4-11" value="" style="endArrow=blockThin;endFill=1;fontSize=11;edgeStyle=elbowEdgeStyle;elbow=vertical;rounded=0;" parent="0Z5E34LWCH2BCrxLQeH4-9" source="0Z5E34LWCH2BCrxLQeH4-10" target="0Z5E34LWCH2BCrxLQeH4-12" edge="1">
          <mxGeometry relative="1" as="geometry" />
        </mxCell>
        <mxCell id="0Z5E34LWCH2BCrxLQeH4-75" style="edgeStyle=orthogonalEdgeStyle;rounded=0;orthogonalLoop=1;jettySize=auto;html=1;entryX=0.5;entryY=0;entryDx=0;entryDy=0;fontFamily=Helvetica;fontSize=12;fontColor=default;startSize=20;" parent="0Z5E34LWCH2BCrxLQeH4-9" source="0Z5E34LWCH2BCrxLQeH4-12" target="0Z5E34LWCH2BCrxLQeH4-72" edge="1">
          <mxGeometry relative="1" as="geometry" />
        </mxCell>
        <UserObject label="李昌威" placeholders="1" id="0Z5E34LWCH2BCrxLQeH4-12">
          <mxCell style="label;image=https://cdn3.iconfinder.com/data/icons/user-avatars-1/512/users-10-3-128.png;whiteSpace=wrap;html=1;rounded=0;glass=0;treeFolding=1;treeMoving=1;" parent="0Z5E34LWCH2BCrxLQeH4-9" vertex="1">
            <mxGeometry x="220" y="170" width="180" height="80" as="geometry" />
          </mxCell>
        </UserObject>
        <mxCell id="0Z5E34LWCH2BCrxLQeH4-13" value="" style="endArrow=blockThin;endFill=1;fontSize=11;edgeStyle=elbowEdgeStyle;elbow=vertical;rounded=0;" parent="0Z5E34LWCH2BCrxLQeH4-9" source="0Z5E34LWCH2BCrxLQeH4-10" target="0Z5E34LWCH2BCrxLQeH4-14" edge="1">
          <mxGeometry relative="1" as="geometry" />
        </mxCell>
        <mxCell id="0Z5E34LWCH2BCrxLQeH4-76" style="edgeStyle=orthogonalEdgeStyle;rounded=0;orthogonalLoop=1;jettySize=auto;html=1;fontFamily=Helvetica;fontSize=12;fontColor=default;startSize=20;" parent="0Z5E34LWCH2BCrxLQeH4-9" source="0Z5E34LWCH2BCrxLQeH4-14" target="0Z5E34LWCH2BCrxLQeH4-73" edge="1">
          <mxGeometry relative="1" as="geometry" />
        </mxCell>
        <UserObject label="吴国庆" placeholders="1" id="0Z5E34LWCH2BCrxLQeH4-14">
          <mxCell style="label;image=https://cdn3.iconfinder.com/data/icons/user-avatars-1/512/users-9-2-128.png;whiteSpace=wrap;html=1;rounded=0;glass=0;treeFolding=1;treeMoving=1;" parent="0Z5E34LWCH2BCrxLQeH4-9" vertex="1">
            <mxGeometry x="440" y="170" width="180" height="80" as="geometry" />
          </mxCell>
        </UserObject>
        <mxCell id="0Z5E34LWCH2BCrxLQeH4-15" value="" style="endArrow=blockThin;endFill=1;fontSize=11;edgeStyle=elbowEdgeStyle;elbow=vertical;rounded=0;" parent="0Z5E34LWCH2BCrxLQeH4-9" source="0Z5E34LWCH2BCrxLQeH4-10" target="0Z5E34LWCH2BCrxLQeH4-16" edge="1">
          <mxGeometry relative="1" as="geometry" />
        </mxCell>
        <mxCell id="0Z5E34LWCH2BCrxLQeH4-77" style="edgeStyle=orthogonalEdgeStyle;rounded=0;orthogonalLoop=1;jettySize=auto;html=1;fontFamily=Helvetica;fontSize=12;fontColor=default;startSize=20;" parent="0Z5E34LWCH2BCrxLQeH4-9" source="0Z5E34LWCH2BCrxLQeH4-16" target="0Z5E34LWCH2BCrxLQeH4-74" edge="1">
          <mxGeometry relative="1" as="geometry" />
        </mxCell>
        <UserObject label="邹振麟" placeholders="1" id="0Z5E34LWCH2BCrxLQeH4-16">
          <mxCell style="label;image=https://cdn3.iconfinder.com/data/icons/user-avatars-1/512//users-3-128.png;whiteSpace=wrap;html=1;rounded=0;glass=0;" parent="0Z5E34LWCH2BCrxLQeH4-9" vertex="1">
            <mxGeometry x="670" y="170" width="180" height="80" as="geometry" />
          </mxCell>
        </UserObject>
        <UserObject label="前端负责人、审计、报表、首页" placeholders="1" id="0Z5E34LWCH2BCrxLQeH4-72">
          <mxCell style="align=left;verticalAlign=top;" parent="0Z5E34LWCH2BCrxLQeH4-9" vertex="1" collapsed="1">
            <mxGeometry x="217" y="290" width="186" height="140" as="geometry" />
          </mxCell>
        </UserObject>
        <UserObject label="任务、升级、策略" placeholders="1" id="0Z5E34LWCH2BCrxLQeH4-73">
          <mxCell style="align=left;verticalAlign=top;" parent="0Z5E34LWCH2BCrxLQeH4-9" vertex="1" collapsed="1">
            <mxGeometry x="437" y="290" width="186" height="140" as="geometry" />
          </mxCell>
        </UserObject>
        <UserObject label="终端管理、系统管理、用户管理、&#xa;租户管理" placeholders="1" id="0Z5E34LWCH2BCrxLQeH4-74">
          <mxCell style="align=left;verticalAlign=top;" parent="0Z5E34LWCH2BCrxLQeH4-9" vertex="1" collapsed="1">
            <mxGeometry x="667" y="290" width="186" height="140" as="geometry" />
          </mxCell>
        </UserObject>
        <mxCell id="QDGvHehOKybcKLlj2q08-13" value="NgEDR微服务&amp;nbsp;" style="text;html=1;strokeColor=none;fillColor=none;align=center;verticalAlign=middle;whiteSpace=wrap;rounded=0;comic=1;fontSize=16;fontStyle=1" vertex="1" parent="1">
          <mxGeometry x="-490" y="1410" width="150" height="20" as="geometry" />
        </mxCell>
        <mxCell id="QDGvHehOKybcKLlj2q08-14" value="" style="rounded=1;whiteSpace=wrap;html=1;fillColor=#60a917;fontColor=#ffffff;strokeColor=#2D7600;align=center;" vertex="1" parent="1">
          <mxGeometry x="130" y="1480" width="300" height="310" as="geometry" />
        </mxCell>
        <mxCell id="QDGvHehOKybcKLlj2q08-15" value="&lt;font face=&quot;Comic Sans MS&quot;&gt;Policy RPC&lt;/font&gt;" style="rounded=1;whiteSpace=wrap;html=1;fontSize=16;fillColor=#f5f5f5;fontColor=#333333;strokeColor=#666666;" vertex="1" parent="1">
          <mxGeometry x="150" y="1510" width="120" height="60" as="geometry" />
        </mxCell>
        <mxCell id="QDGvHehOKybcKLlj2q08-16" value="&lt;font face=&quot;Comic Sans MS&quot;&gt;Task RPC&lt;/font&gt;" style="rounded=1;whiteSpace=wrap;html=1;fontSize=16;fillColor=#dae8fc;strokeColor=#6c8ebf;" vertex="1" parent="1">
          <mxGeometry x="294" y="1510" width="120" height="60" as="geometry" />
        </mxCell>
        <mxCell id="QDGvHehOKybcKLlj2q08-17" value="&lt;font face=&quot;Comic Sans MS&quot;&gt;&lt;span style=&quot;font-size: 16px;&quot;&gt;&lt;b&gt;CBB Agent&lt;/b&gt;&lt;/span&gt;&lt;/font&gt;" style="text;strokeColor=none;align=center;fillColor=none;html=1;verticalAlign=middle;whiteSpace=wrap;rounded=0;" vertex="1" parent="1">
          <mxGeometry x="215" y="1430" width="130" height="40" as="geometry" />
        </mxCell>
        <mxCell id="QDGvHehOKybcKLlj2q08-18" value="&lt;font face=&quot;Comic Sans MS&quot;&gt;Agent RestAPI&lt;/font&gt;" style="rounded=1;whiteSpace=wrap;html=1;fontSize=16;fillColor=#f8cecc;strokeColor=#b85450;" vertex="1" parent="1">
          <mxGeometry x="150" y="1610" width="120" height="60" as="geometry" />
        </mxCell>
        <mxCell id="QDGvHehOKybcKLlj2q08-19" value="&lt;font face=&quot;Comic Sans MS&quot;&gt;Assets RPC&lt;/font&gt;" style="rounded=1;whiteSpace=wrap;html=1;fontSize=16;fillColor=#fad7ac;strokeColor=#b46504;" vertex="1" parent="1">
          <mxGeometry x="299" y="1610" width="120" height="60" as="geometry" />
        </mxCell>
        <mxCell id="QDGvHehOKybcKLlj2q08-20" value="" style="rounded=1;whiteSpace=wrap;html=1;fillColor=#e1d5e7;strokeColor=#9673a6;align=center;" vertex="1" parent="1">
          <mxGeometry x="-470" y="1470" width="300" height="310" as="geometry" />
        </mxCell>
        <mxCell id="QDGvHehOKybcKLlj2q08-23" value="&lt;font style=&quot;font-size: 16px;&quot; face=&quot;Comic Sans MS&quot;&gt;&lt;b&gt;PTSvc&lt;/b&gt;&lt;/font&gt;" style="rounded=1;whiteSpace=wrap;html=1;" vertex="1" parent="1">
          <mxGeometry x="-460" y="1520" width="120" height="60" as="geometry" />
        </mxCell>
        <mxCell id="QDGvHehOKybcKLlj2q08-24" value="&lt;font style=&quot;font-size: 16px;&quot; face=&quot;Comic Sans MS&quot;&gt;&lt;b&gt;LogSvc&lt;/b&gt;&lt;/font&gt;" style="rounded=1;whiteSpace=wrap;html=1;fillColor=#a0522d;strokeColor=#6D1F00;fontColor=#ffffff;" vertex="1" parent="1">
          <mxGeometry x="-310" y="1520" width="120" height="60" as="geometry" />
        </mxCell>
        <mxCell id="QDGvHehOKybcKLlj2q08-25" value="&lt;font style=&quot;font-size: 16px;&quot; face=&quot;Comic Sans MS&quot;&gt;&lt;b&gt;UpdateSvc&lt;/b&gt;&lt;/font&gt;" style="rounded=1;whiteSpace=wrap;html=1;fillColor=#6d8764;fontColor=#ffffff;strokeColor=#3A5431;" vertex="1" parent="1">
          <mxGeometry x="-460" y="1620" width="120" height="60" as="geometry" />
        </mxCell>
        <mxCell id="QDGvHehOKybcKLlj2q08-26" value="&lt;font style=&quot;font-size: 16px;&quot; face=&quot;Comic Sans MS&quot;&gt;&lt;b&gt;ERSvc&lt;/b&gt;&lt;/font&gt;" style="rounded=1;whiteSpace=wrap;html=1;fillColor=#f0a30a;fontColor=#000000;strokeColor=#BD7000;" vertex="1" parent="1">
          <mxGeometry x="-310" y="1620" width="120" height="60" as="geometry" />
        </mxCell>
        <mxCell id="QDGvHehOKybcKLlj2q08-27" value="&lt;font style=&quot;font-size: 16px;&quot; face=&quot;Comic Sans MS&quot;&gt;&lt;b&gt;SystemSvc&lt;/b&gt;&lt;/font&gt;" style="rounded=1;whiteSpace=wrap;html=1;fillColor=#e3c800;fontColor=#000000;strokeColor=#B09500;" vertex="1" parent="1">
          <mxGeometry x="-435" y="1694" width="230" height="60" as="geometry" />
        </mxCell>
        <mxCell id="QDGvHehOKybcKLlj2q08-41" value="&lt;font style=&quot;font-size: 16px;&quot;&gt;&lt;b&gt;服务名称&lt;/b&gt;&lt;/font&gt;" style="rounded=0;whiteSpace=wrap;html=1;fillColor=#bac8d3;strokeColor=#23445d;" vertex="1" parent="1">
          <mxGeometry x="-480" y="1940" width="120" height="60" as="geometry" />
        </mxCell>
        <mxCell id="QDGvHehOKybcKLlj2q08-42" value="&lt;font style=&quot;font-size: 16px;&quot;&gt;&lt;b&gt;负责人&lt;/b&gt;&lt;/font&gt;" style="rounded=0;whiteSpace=wrap;html=1;fillColor=#b1ddf0;strokeColor=#10739e;" vertex="1" parent="1">
          <mxGeometry x="-360" y="1940" width="120" height="60" as="geometry" />
        </mxCell>
        <mxCell id="QDGvHehOKybcKLlj2q08-43" value="&lt;font face=&quot;Comic Sans MS&quot; style=&quot;font-size: 16px;&quot;&gt;PolicySvc&lt;/font&gt;" style="rounded=0;whiteSpace=wrap;html=1;fontStyle=2;fillColor=#f5f5f5;fontColor=#333333;strokeColor=#666666;" vertex="1" parent="1">
          <mxGeometry x="-480" y="2000" width="120" height="60" as="geometry" />
        </mxCell>
        <mxCell id="QDGvHehOKybcKLlj2q08-44" value="&lt;span style=&quot;font-size: 16px;&quot;&gt;&lt;i style=&quot;&quot;&gt;刘鑫&lt;/i&gt;&lt;/span&gt;" style="rounded=0;whiteSpace=wrap;html=1;fillColor=#f5f5f5;fontColor=#333333;strokeColor=#666666;" vertex="1" parent="1">
          <mxGeometry x="-360" y="2000" width="120" height="60" as="geometry" />
        </mxCell>
        <mxCell id="QDGvHehOKybcKLlj2q08-45" value="&lt;font face=&quot;Comic Sans MS&quot; style=&quot;font-size: 16px;&quot;&gt;TaskSvc&lt;/font&gt;" style="rounded=0;whiteSpace=wrap;html=1;fontStyle=2;fillColor=#dae8fc;strokeColor=#6c8ebf;" vertex="1" parent="1">
          <mxGeometry x="-480" y="2060" width="120" height="60" as="geometry" />
        </mxCell>
        <mxCell id="QDGvHehOKybcKLlj2q08-46" value="&lt;span style=&quot;font-size: 16px;&quot;&gt;&lt;i&gt;韩湘&lt;/i&gt;&lt;/span&gt;" style="rounded=0;whiteSpace=wrap;html=1;fillColor=#dae8fc;strokeColor=#6c8ebf;" vertex="1" parent="1">
          <mxGeometry x="-360" y="2060" width="120" height="60" as="geometry" />
        </mxCell>
        <mxCell id="QDGvHehOKybcKLlj2q08-47" value="&lt;font face=&quot;Comic Sans MS&quot; style=&quot;font-size: 16px;&quot;&gt;UpdateSvc&lt;/font&gt;" style="rounded=0;whiteSpace=wrap;html=1;fontStyle=2;fillColor=#d5e8d4;strokeColor=#82b366;" vertex="1" parent="1">
          <mxGeometry x="-480" y="2120" width="120" height="60" as="geometry" />
        </mxCell>
        <mxCell id="QDGvHehOKybcKLlj2q08-48" value="&lt;span style=&quot;font-size: 16px;&quot;&gt;&lt;i style=&quot;&quot;&gt;曹迅&lt;/i&gt;&lt;/span&gt;" style="rounded=0;whiteSpace=wrap;html=1;fillColor=#d5e8d4;strokeColor=#82b366;" vertex="1" parent="1">
          <mxGeometry x="-360" y="2120" width="120" height="60" as="geometry" />
        </mxCell>
        <mxCell id="QDGvHehOKybcKLlj2q08-49" value="&lt;font face=&quot;Comic Sans MS&quot; style=&quot;font-size: 16px;&quot;&gt;ERSvc&lt;/font&gt;" style="rounded=0;whiteSpace=wrap;html=1;fontStyle=2;fillColor=#e1d5e7;strokeColor=#9673a6;" vertex="1" parent="1">
          <mxGeometry x="-480" y="2180" width="120" height="60" as="geometry" />
        </mxCell>
        <mxCell id="QDGvHehOKybcKLlj2q08-50" value="&lt;span style=&quot;font-size: 16px;&quot;&gt;&lt;i style=&quot;&quot;&gt;丁旭&lt;/i&gt;&lt;/span&gt;" style="rounded=0;whiteSpace=wrap;html=1;fillColor=#e1d5e7;strokeColor=#9673a6;" vertex="1" parent="1">
          <mxGeometry x="-360" y="2180" width="120" height="60" as="geometry" />
        </mxCell>
        <mxCell id="QDGvHehOKybcKLlj2q08-71" value="" style="edgeStyle=orthogonalEdgeStyle;rounded=0;orthogonalLoop=1;jettySize=auto;html=1;" edge="1" parent="1" source="QDGvHehOKybcKLlj2q08-51" target="QDGvHehOKybcKLlj2q08-67">
          <mxGeometry relative="1" as="geometry" />
        </mxCell>
        <mxCell id="QDGvHehOKybcKLlj2q08-51" value="&lt;font face=&quot;Comic Sans MS&quot; style=&quot;font-size: 16px;&quot;&gt;SystemSvc&lt;/font&gt;" style="rounded=0;whiteSpace=wrap;html=1;fontStyle=2;fillColor=#e1d5e7;strokeColor=#9673a6;" vertex="1" parent="1">
          <mxGeometry x="-480" y="2240" width="120" height="110" as="geometry" />
        </mxCell>
        <mxCell id="QDGvHehOKybcKLlj2q08-52" value="&lt;span style=&quot;font-size: 16px;&quot;&gt;&lt;i&gt;谢崇彬、吴阳、韩湘、曹迅、王鹏、唐川成&lt;/i&gt;&lt;/span&gt;" style="rounded=0;whiteSpace=wrap;html=1;fillColor=#e1d5e7;strokeColor=#9673a6;" vertex="1" parent="1">
          <mxGeometry x="-360" y="2240" width="120" height="110" as="geometry" />
        </mxCell>
        <mxCell id="QDGvHehOKybcKLlj2q08-53" value="&lt;font style=&quot;font-size: 16px;&quot;&gt;&lt;b&gt;CBB&lt;/b&gt;&lt;/font&gt;" style="rounded=0;whiteSpace=wrap;html=1;fillColor=#bac8d3;strokeColor=#23445d;" vertex="1" parent="1">
          <mxGeometry x="20" y="1950" width="120" height="60" as="geometry" />
        </mxCell>
        <mxCell id="QDGvHehOKybcKLlj2q08-54" value="&lt;font style=&quot;font-size: 16px;&quot;&gt;&lt;b&gt;负责人&lt;/b&gt;&lt;/font&gt;" style="rounded=0;whiteSpace=wrap;html=1;fillColor=#b1ddf0;strokeColor=#10739e;" vertex="1" parent="1">
          <mxGeometry x="140" y="1950" width="120" height="60" as="geometry" />
        </mxCell>
        <mxCell id="QDGvHehOKybcKLlj2q08-55" value="&lt;font face=&quot;Comic Sans MS&quot; style=&quot;font-size: 16px;&quot;&gt;Asserts&lt;/font&gt;" style="rounded=0;whiteSpace=wrap;html=1;fontStyle=2;fillColor=#f5f5f5;fontColor=#333333;strokeColor=#666666;" vertex="1" parent="1">
          <mxGeometry x="20" y="2010" width="120" height="60" as="geometry" />
        </mxCell>
        <mxCell id="QDGvHehOKybcKLlj2q08-56" value="&lt;span style=&quot;font-size: 16px;&quot;&gt;&lt;i&gt;吴阳&lt;/i&gt;&lt;/span&gt;" style="rounded=0;whiteSpace=wrap;html=1;fillColor=#f5f5f5;fontColor=#333333;strokeColor=#666666;" vertex="1" parent="1">
          <mxGeometry x="140" y="2010" width="120" height="60" as="geometry" />
        </mxCell>
        <mxCell id="QDGvHehOKybcKLlj2q08-59" value="" style="shape=curlyBracket;whiteSpace=wrap;html=1;rounded=1;flipH=1;labelPosition=right;verticalLabelPosition=middle;align=left;verticalAlign=middle;" vertex="1" parent="1">
          <mxGeometry x="-230" y="2240" width="25" height="110" as="geometry" />
        </mxCell>
        <mxCell id="QDGvHehOKybcKLlj2q08-61" style="edgeStyle=orthogonalEdgeStyle;rounded=0;orthogonalLoop=1;jettySize=auto;html=1;entryX=1;entryY=0.5;entryDx=0;entryDy=0;" edge="1" parent="1" source="QDGvHehOKybcKLlj2q08-60" target="QDGvHehOKybcKLlj2q08-46">
          <mxGeometry relative="1" as="geometry" />
        </mxCell>
        <mxCell id="QDGvHehOKybcKLlj2q08-60" value="任务 CBB 基本可以用。" style="shape=note;whiteSpace=wrap;html=1;backgroundOutline=1;fontColor=#000000;darkOpacity=0.05;fillColor=#FFF9B2;strokeColor=none;fillStyle=solid;direction=west;gradientDirection=north;gradientColor=#FFF2A1;shadow=1;size=20;pointerEvents=1;align=left;" vertex="1" parent="1">
          <mxGeometry x="-150" y="2010" width="140" height="160" as="geometry" />
        </mxCell>
        <mxCell id="QDGvHehOKybcKLlj2q08-63" value="统计分析" style="rounded=0;whiteSpace=wrap;html=1;fontSize=16;fontStyle=1" vertex="1" parent="1">
          <mxGeometry x="-205" y="2240" width="115" height="40" as="geometry" />
        </mxCell>
        <mxCell id="QDGvHehOKybcKLlj2q08-64" value="&lt;font style=&quot;font-size: 16px;&quot;&gt;曹迅&lt;/font&gt;" style="rounded=0;whiteSpace=wrap;html=1;" vertex="1" parent="1">
          <mxGeometry x="-90" y="2240" width="125" height="40" as="geometry" />
        </mxCell>
        <mxCell id="QDGvHehOKybcKLlj2q08-65" value="授权" style="rounded=0;whiteSpace=wrap;html=1;fontSize=16;fontStyle=1" vertex="1" parent="1">
          <mxGeometry x="-205" y="2280" width="115" height="40" as="geometry" />
        </mxCell>
        <mxCell id="QDGvHehOKybcKLlj2q08-66" value="&lt;font style=&quot;font-size: 16px;&quot;&gt;谢崇彬&lt;/font&gt;" style="rounded=0;whiteSpace=wrap;html=1;" vertex="1" parent="1">
          <mxGeometry x="-90" y="2280" width="125" height="40" as="geometry" />
        </mxCell>
        <mxCell id="QDGvHehOKybcKLlj2q08-67" value="支撑域，功能较多，拆分domain service、租户、统计分析..." style="shape=note;whiteSpace=wrap;html=1;backgroundOutline=1;fontColor=#000000;darkOpacity=0.05;fillColor=#FFF9B2;strokeColor=none;fillStyle=solid;direction=west;gradientDirection=north;gradientColor=#FFF2A1;shadow=1;size=20;pointerEvents=1;align=left;" vertex="1" parent="1">
          <mxGeometry x="-485" y="2380" width="130" height="160" as="geometry" />
        </mxCell>
        <mxCell id="QDGvHehOKybcKLlj2q08-72" value="。。。。。。" style="text;strokeColor=none;align=center;fillColor=none;html=1;verticalAlign=middle;whiteSpace=wrap;rounded=0;" vertex="1" parent="1">
          <mxGeometry x="-110" y="2320" width="120" height="20" as="geometry" />
        </mxCell>
        <mxCell id="QDGvHehOKybcKLlj2q08-74" value="&lt;b&gt;&lt;font face=&quot;Comic Sans MS&quot; style=&quot;font-size: 20px;&quot;&gt;PBC（个人绩效承偌）&lt;/font&gt;&lt;/b&gt;" style="text;strokeColor=none;align=center;fillColor=none;html=1;verticalAlign=middle;whiteSpace=wrap;rounded=0;" vertex="1" parent="1">
          <mxGeometry x="-380" y="2650" width="220" as="geometry" />
        </mxCell>
        <mxCell id="QDGvHehOKybcKLlj2q08-75" value="&lt;b&gt;&lt;font style=&quot;font-size: 16px;&quot;&gt;1、连接地址显示docker0地址（nat 网络环境或者其他情况）&lt;br&gt;2、消息组件Nats性能测试以及与其他消息组件分析&lt;br&gt;3、go-zero框架技术分享会&lt;br&gt;&lt;/font&gt;&lt;/b&gt;" style="rounded=1;whiteSpace=wrap;html=1;fillColor=#dae8fc;strokeColor=#6c8ebf;align=left;" vertex="1" parent="1">
          <mxGeometry x="-430" y="3170" width="700" height="280" as="geometry" />
        </mxCell>
        <mxCell id="QDGvHehOKybcKLlj2q08-80" value="&lt;font style=&quot;font-size: 16px;&quot;&gt;1、代码重复、对象定义重复、返回给前端定义不明确&lt;br&gt;2、&lt;/font&gt;" style="rounded=1;whiteSpace=wrap;html=1;align=left;fillColor=#e1d5e7;strokeColor=#9673a6;" vertex="1" parent="1">
          <mxGeometry x="330" y="2140" width="680" height="400" as="geometry" />
        </mxCell>
        <mxCell id="QDGvHehOKybcKLlj2q08-81" value="解决问题：" style="text;strokeColor=none;align=center;fillColor=none;html=1;verticalAlign=middle;whiteSpace=wrap;rounded=0;fontSize=16;fontStyle=1" vertex="1" parent="1">
          <mxGeometry x="345" y="2110" width="176" height="30" as="geometry" />
        </mxCell>
      </root>
    </mxGraphModel>
  </diagram>
</mxfile>
